<?xml version="1.0" standalone="no"?>
<!DOCTYPE svg PUBLIC "-//W3C//DTD SVG 20010904//EN"
 "http://www.w3.org/TR/2001/REC-SVG-20010904/DTD/svg10.dtd">
<svg version="1.0" xmlns="http://www.w3.org/2000/svg"
 width="300.000000pt" height="300.000000pt" viewBox="0 0 300.000000 300.000000"
 preserveAspectRatio="xMidYMid meet">
<metadata>
Created by potrace 1.11, written by Peter Selinger 2001-2013
</metadata>
<g transform="translate(0.000000,300.000000) scale(0.100000,-0.100000)"
fill="#000000" stroke="none">
<path d="M462 2777 c-53 -20 -96 -61 -130 -124 -55 -103 -63 -158 -72 -488 -9
-311 -18 -383 -59 -463 -33 -63 -88 -102 -147 -102 -24 0 -24 0 -24 -105 0
-105 0 -105 24 -105 59 0 114 -39 147 -102 41 -80 50 -152 59 -463 9 -330 17
-385 72 -487 53 -99 118 -138 232 -138 l56 0 0 90 0 90 -45 0 c-89 0 -136 39
-165 135 -7 24 -15 156 -20 335 -8 320 -14 362 -70 476 -16 34 -50 83 -75 109
-25 27 -45 54 -45 60 0 6 20 33 45 60 25 26 59 75 75 109 56 114 62 156 70
476 5 179 13 311 20 335 29 96 76 135 165 135 l45 0 0 90 0 90 -62 -1 c-35 0
-78 -6 -96 -12z"/>
<path d="M2350 2701 l0 -91 45 0 c89 0 136 -39 165 -135 7 -24 15 -156 20
-335 8 -320 14 -362 70 -476 16 -34 50 -83 75 -109 25 -27 45 -54 45 -60 0 -6
-20 -33 -45 -60 -25 -26 -59 -75 -75 -109 -56 -114 -62 -156 -70 -476 -5 -179
-13 -311 -20 -335 -29 -96 -76 -135 -165 -135 l-45 0 0 -90 0 -90 56 0 c114 0
179 39 232 138 55 102 63 157 72 487 9 311 18 383 59 463 33 63 88 102 147
102 24 0 24 0 24 104 l0 103 -42 6 c-99 13 -154 102 -178 287 -5 41 -10 167
-10 280 -1 287 -18 393 -82 500 -18 30 -52 68 -75 84 -36 25 -54 30 -123 34
l-80 5 0 -92z"/>
<path d="M1330 2325 l0 -55 58 0 58 0 -2 38 c-1 20 -3 45 -3 55 -1 14 -11 17
-56 17 l-55 0 0 -55z"/>
<path d="M1005 2105 l0 -55 55 0 55 0 0 -227 c-1 -155 -5 -234 -13 -248 -6
-11 -32 -67 -58 -125 -25 -58 -56 -127 -68 -155 -135 -296 -238 -541 -238
-565 -1 -40 17 -73 52 -93 25 -15 91 -17 710 -17 749 0 722 -2 753 61 8 18 13
44 11 58 -3 14 -53 134 -111 266 -112 254 -118 266 -209 470 l-58 130 -1 223
-1 222 56 0 55 0 0 55 0 55 -495 0 -495 0 0 -55z m766 -62 c0 -5 2 -107 3
-228 1 -190 4 -226 20 -260 22 -48 24 -54 76 -174 22 -52 38 -96 35 -99 -5 -6
-805 -5 -811 1 -3 2 26 78 63 169 l68 164 -1 217 0 217 273 0 c150 0 273 -3
274 -7z"/>
<path d="M1443 1886 c0 -53 0 -54 31 -58 17 -2 42 -1 56 2 21 4 25 10 24 40
-3 74 0 70 -57 70 l-53 0 -1 -54z"/>
<path d="M1331 1667 l-1 -58 57 3 56 3 1 43 c1 24 -1 48 -5 53 -3 6 -29 11
-56 12 l-51 2 -1 -58z"/>
<path d="M1553 1445 l2 -55 56 0 56 0 -1 53 -1 52 -57 3 -57 3 2 -56z"/>
</g>
</svg>
